<?xml version="1.0" encoding="UTF-8" standalone="no"?>
<!DOCTYPE svg PUBLIC "-//W3C//DTD SVG 1.1//EN"
 "http://www.w3.org/Graphics/SVG/1.1/DTD/svg11.dtd">
<!-- Generated by graphviz version 2.50.0 (0)
 -->
<!-- Title: Tree Pages: 1 -->
<svg width="1758pt" height="373pt"
 viewBox="0.00 0.00 1758.00 373.00" xmlns="http://www.w3.org/2000/svg" xmlns:xlink="http://www.w3.org/1999/xlink">
<g id="graph0" class="graph" transform="scale(1 1) rotate(0) translate(4 369)">
<title>Tree</title>
<polygon fill="white" stroke="transparent" points="-4,4 -4,-369 1754,-369 1754,4 -4,4"/>
<!-- 0 -->
<g id="node1" class="node">
<title>0</title>
<polygon fill="none" stroke="black" points="978,-365 767,-365 767,-297 978,-297 978,-365"/>
<text text-anchor="middle" x="872.5" y="-349.8" font-family="Helvetica,sans-Serif" font-size="14.00">smoker_no &lt;= 0.5</text>
<text text-anchor="middle" x="872.5" y="-334.8" font-family="Helvetica,sans-Serif" font-size="14.00">squared_error = 146542766.494</text>
<text text-anchor="middle" x="872.5" y="-319.8" font-family="Helvetica,sans-Serif" font-size="14.00">samples = 1338</text>
<text text-anchor="middle" x="872.5" y="-304.8" font-family="Helvetica,sans-Serif" font-size="14.00">value = 13270.422</text>
</g>
<!-- 1 -->
<g id="node2" class="node">
<title>1</title>
<polygon fill="none" stroke="black" points="756.5,-261 546.5,-261 546.5,-193 756.5,-193 756.5,-261"/>
<text text-anchor="middle" x="651.5" y="-245.8" font-family="Helvetica,sans-Serif" font-size="14.00">bmi &lt;= 30.01</text>
<text text-anchor="middle" x="651.5" y="-230.8" font-family="Helvetica,sans-Serif" font-size="14.00">squared_error = 132721153.136</text>
<text text-anchor="middle" x="651.5" y="-215.8" font-family="Helvetica,sans-Serif" font-size="14.00">samples = 274</text>
<text text-anchor="middle" x="651.5" y="-200.8" font-family="Helvetica,sans-Serif" font-size="14.00">value = 32050.232</text>
</g>
<!-- 0&#45;&gt;1 -->
<g id="edge1" class="edge">
<title>0&#45;&gt;1</title>
<path fill="none" stroke="black" d="M800.75,-296.88C778.93,-286.81 754.79,-275.67 732.41,-265.34"/>
<polygon fill="black" stroke="black" points="733.82,-262.14 723.27,-261.12 730.88,-268.49 733.82,-262.14"/>
<text text-anchor="middle" x="731.91" y="-280.88" font-family="Helvetica,sans-Serif" font-size="14.00">True</text>
</g>
<!-- 8 -->
<g id="node9" class="node">
<title>8</title>
<polygon fill="none" stroke="black" points="1197,-261 994,-261 994,-193 1197,-193 1197,-261"/>
<text text-anchor="middle" x="1095.5" y="-245.8" font-family="Helvetica,sans-Serif" font-size="14.00">age &lt;= 42.5</text>
<text text-anchor="middle" x="1095.5" y="-230.8" font-family="Helvetica,sans-Serif" font-size="14.00">squared_error = 35891656.003</text>
<text text-anchor="middle" x="1095.5" y="-215.8" font-family="Helvetica,sans-Serif" font-size="14.00">samples = 1064</text>
<text text-anchor="middle" x="1095.5" y="-200.8" font-family="Helvetica,sans-Serif" font-size="14.00">value = 8434.268</text>
</g>
<!-- 0&#45;&gt;8 -->
<g id="edge8" class="edge">
<title>0&#45;&gt;8</title>
<path fill="none" stroke="black" d="M944.9,-296.88C966.92,-286.81 991.27,-275.67 1013.86,-265.34"/>
<polygon fill="black" stroke="black" points="1015.44,-268.47 1023.08,-261.12 1012.53,-262.1 1015.44,-268.47"/>
<text text-anchor="middle" x="1014.36" y="-280.85" font-family="Helvetica,sans-Serif" font-size="14.00">False</text>
</g>
<!-- 2 -->
<g id="node3" class="node">
<title>2</title>
<polygon fill="none" stroke="black" points="424,-157 221,-157 221,-89 424,-89 424,-157"/>
<text text-anchor="middle" x="322.5" y="-141.8" font-family="Helvetica,sans-Serif" font-size="14.00">age &lt;= 41.0</text>
<text text-anchor="middle" x="322.5" y="-126.8" font-family="Helvetica,sans-Serif" font-size="14.00">squared_error = 25281960.654</text>
<text text-anchor="middle" x="322.5" y="-111.8" font-family="Helvetica,sans-Serif" font-size="14.00">samples = 130</text>
<text text-anchor="middle" x="322.5" y="-96.8" font-family="Helvetica,sans-Serif" font-size="14.00">value = 21369.223</text>
</g>
<!-- 1&#45;&gt;2 -->
<g id="edge2" class="edge">
<title>1&#45;&gt;2</title>
<path fill="none" stroke="black" d="M546.5,-193.45C510.59,-182.31 470.31,-169.83 433.92,-158.54"/>
<polygon fill="black" stroke="black" points="434.85,-155.17 424.26,-155.55 432.78,-161.85 434.85,-155.17"/>
</g>
<!-- 5 -->
<g id="node6" class="node">
<title>5</title>
<polygon fill="none" stroke="black" points="753,-157 550,-157 550,-89 753,-89 753,-157"/>
<text text-anchor="middle" x="651.5" y="-141.8" font-family="Helvetica,sans-Serif" font-size="14.00">age &lt;= 41.5</text>
<text text-anchor="middle" x="651.5" y="-126.8" font-family="Helvetica,sans-Serif" font-size="14.00">squared_error = 33743125.229</text>
<text text-anchor="middle" x="651.5" y="-111.8" font-family="Helvetica,sans-Serif" font-size="14.00">samples = 144</text>
<text text-anchor="middle" x="651.5" y="-96.8" font-family="Helvetica,sans-Serif" font-size="14.00">value = 41692.809</text>
</g>
<!-- 1&#45;&gt;5 -->
<g id="edge5" class="edge">
<title>1&#45;&gt;5</title>
<path fill="none" stroke="black" d="M651.5,-192.88C651.5,-184.78 651.5,-175.98 651.5,-167.47"/>
<polygon fill="black" stroke="black" points="655,-167.3 651.5,-157.3 648,-167.3 655,-167.3"/>
</g>
<!-- 3 -->
<g id="node4" class="node">
<title>3</title>
<polygon fill="none" stroke="black" points="203,-53 0,-53 0,0 203,0 203,-53"/>
<text text-anchor="middle" x="101.5" y="-37.8" font-family="Helvetica,sans-Serif" font-size="14.00">squared_error = 12049437.126</text>
<text text-anchor="middle" x="101.5" y="-22.8" font-family="Helvetica,sans-Serif" font-size="14.00">samples = 73</text>
<text text-anchor="middle" x="101.5" y="-7.8" font-family="Helvetica,sans-Serif" font-size="14.00">value = 18474.022</text>
</g>
<!-- 2&#45;&gt;3 -->
<g id="edge3" class="edge">
<title>2&#45;&gt;3</title>
<path fill="none" stroke="black" d="M245.2,-88.95C220.92,-78.56 194.28,-67.17 170.6,-57.05"/>
<polygon fill="black" stroke="black" points="171.91,-53.8 161.34,-53.09 169.16,-60.24 171.91,-53.8"/>
</g>
<!-- 4 -->
<g id="node5" class="node">
<title>4</title>
<polygon fill="none" stroke="black" points="424,-53 221,-53 221,0 424,0 424,-53"/>
<text text-anchor="middle" x="322.5" y="-37.8" font-family="Helvetica,sans-Serif" font-size="14.00">squared_error = 17745345.573</text>
<text text-anchor="middle" x="322.5" y="-22.8" font-family="Helvetica,sans-Serif" font-size="14.00">samples = 57</text>
<text text-anchor="middle" x="322.5" y="-7.8" font-family="Helvetica,sans-Serif" font-size="14.00">value = 25077.113</text>
</g>
<!-- 2&#45;&gt;4 -->
<g id="edge4" class="edge">
<title>2&#45;&gt;4</title>
<path fill="none" stroke="black" d="M322.5,-88.95C322.5,-80.72 322.5,-71.85 322.5,-63.48"/>
<polygon fill="black" stroke="black" points="326,-63.24 322.5,-53.24 319,-63.24 326,-63.24"/>
</g>
<!-- 6 -->
<g id="node7" class="node">
<title>6</title>
<polygon fill="none" stroke="black" points="645,-53 442,-53 442,0 645,0 645,-53"/>
<text text-anchor="middle" x="543.5" y="-37.8" font-family="Helvetica,sans-Serif" font-size="14.00">squared_error = 19630324.142</text>
<text text-anchor="middle" x="543.5" y="-22.8" font-family="Helvetica,sans-Serif" font-size="14.00">samples = 78</text>
<text text-anchor="middle" x="543.5" y="-7.8" font-family="Helvetica,sans-Serif" font-size="14.00">value = 38354.292</text>
</g>
<!-- 5&#45;&gt;6 -->
<g id="edge6" class="edge">
<title>5&#45;&gt;6</title>
<path fill="none" stroke="black" d="M613.73,-88.95C602.96,-79.53 591.24,-69.27 580.52,-59.89"/>
<polygon fill="black" stroke="black" points="582.74,-57.19 572.91,-53.24 578.13,-62.46 582.74,-57.19"/>
</g>
<!-- 7 -->
<g id="node8" class="node">
<title>7</title>
<polygon fill="none" stroke="black" points="866,-53 663,-53 663,0 866,0 866,-53"/>
<text text-anchor="middle" x="764.5" y="-37.8" font-family="Helvetica,sans-Serif" font-size="14.00">squared_error = 21682580.293</text>
<text text-anchor="middle" x="764.5" y="-22.8" font-family="Helvetica,sans-Serif" font-size="14.00">samples = 66</text>
<text text-anchor="middle" x="764.5" y="-7.8" font-family="Helvetica,sans-Serif" font-size="14.00">value = 45638.329</text>
</g>
<!-- 5&#45;&gt;7 -->
<g id="edge7" class="edge">
<title>5&#45;&gt;7</title>
<path fill="none" stroke="black" d="M691.02,-88.95C702.29,-79.53 714.55,-69.27 725.77,-59.89"/>
<polygon fill="black" stroke="black" points="728.3,-62.34 733.72,-53.24 723.81,-56.97 728.3,-62.34"/>
</g>
<!-- 9 -->
<g id="node10" class="node">
<title>9</title>
<polygon fill="none" stroke="black" points="1197,-157 994,-157 994,-89 1197,-89 1197,-157"/>
<text text-anchor="middle" x="1095.5" y="-141.8" font-family="Helvetica,sans-Serif" font-size="14.00">children &lt;= 0.5</text>
<text text-anchor="middle" x="1095.5" y="-126.8" font-family="Helvetica,sans-Serif" font-size="14.00">squared_error = 22145208.607</text>
<text text-anchor="middle" x="1095.5" y="-111.8" font-family="Helvetica,sans-Serif" font-size="14.00">samples = 596</text>
<text text-anchor="middle" x="1095.5" y="-96.8" font-family="Helvetica,sans-Serif" font-size="14.00">value = 5398.85</text>
</g>
<!-- 8&#45;&gt;9 -->
<g id="edge9" class="edge">
<title>8&#45;&gt;9</title>
<path fill="none" stroke="black" d="M1095.5,-192.88C1095.5,-184.78 1095.5,-175.98 1095.5,-167.47"/>
<polygon fill="black" stroke="black" points="1099,-167.3 1095.5,-157.3 1092,-167.3 1099,-167.3"/>
</g>
<!-- 12 -->
<g id="node13" class="node">
<title>12</title>
<polygon fill="none" stroke="black" points="1529,-157 1326,-157 1326,-89 1529,-89 1529,-157"/>
<text text-anchor="middle" x="1427.5" y="-141.8" font-family="Helvetica,sans-Serif" font-size="14.00">age &lt;= 51.5</text>
<text text-anchor="middle" x="1427.5" y="-126.8" font-family="Helvetica,sans-Serif" font-size="14.00">squared_error = 26721037.099</text>
<text text-anchor="middle" x="1427.5" y="-111.8" font-family="Helvetica,sans-Serif" font-size="14.00">samples = 468</text>
<text text-anchor="middle" x="1427.5" y="-96.8" font-family="Helvetica,sans-Serif" font-size="14.00">value = 12299.887</text>
</g>
<!-- 8&#45;&gt;12 -->
<g id="edge12" class="edge">
<title>8&#45;&gt;12</title>
<path fill="none" stroke="black" d="M1197.37,-194.7C1234.97,-183.15 1277.76,-170 1316.16,-158.21"/>
<polygon fill="black" stroke="black" points="1317.29,-161.52 1325.83,-155.24 1315.24,-154.83 1317.29,-161.52"/>
</g>
<!-- 10 -->
<g id="node11" class="node">
<title>10</title>
<polygon fill="none" stroke="black" points="1087,-53 884,-53 884,0 1087,0 1087,-53"/>
<text text-anchor="middle" x="985.5" y="-37.8" font-family="Helvetica,sans-Serif" font-size="14.00">squared_error = 16936983.559</text>
<text text-anchor="middle" x="985.5" y="-22.8" font-family="Helvetica,sans-Serif" font-size="14.00">samples = 253</text>
<text text-anchor="middle" x="985.5" y="-7.8" font-family="Helvetica,sans-Serif" font-size="14.00">value = 3850.841</text>
</g>
<!-- 9&#45;&gt;10 -->
<g id="edge10" class="edge">
<title>9&#45;&gt;10</title>
<path fill="none" stroke="black" d="M1057.03,-88.95C1046.06,-79.53 1034.12,-69.27 1023.2,-59.89"/>
<polygon fill="black" stroke="black" points="1025.32,-57.1 1015.46,-53.24 1020.76,-62.41 1025.32,-57.1"/>
</g>
<!-- 11 -->
<g id="node12" class="node">
<title>11</title>
<polygon fill="none" stroke="black" points="1308,-53 1105,-53 1105,0 1308,0 1308,-53"/>
<text text-anchor="middle" x="1206.5" y="-37.8" font-family="Helvetica,sans-Serif" font-size="14.00">squared_error = 22915523.402</text>
<text text-anchor="middle" x="1206.5" y="-22.8" font-family="Helvetica,sans-Serif" font-size="14.00">samples = 343</text>
<text text-anchor="middle" x="1206.5" y="-7.8" font-family="Helvetica,sans-Serif" font-size="14.00">value = 6540.675</text>
</g>
<!-- 9&#45;&gt;11 -->
<g id="edge11" class="edge">
<title>9&#45;&gt;11</title>
<path fill="none" stroke="black" d="M1134.32,-88.95C1145.39,-79.53 1157.43,-69.27 1168.45,-59.89"/>
<polygon fill="black" stroke="black" points="1170.92,-62.38 1176.27,-53.24 1166.39,-57.05 1170.92,-62.38"/>
</g>
<!-- 13 -->
<g id="node14" class="node">
<title>13</title>
<polygon fill="none" stroke="black" points="1529,-53 1326,-53 1326,0 1529,0 1529,-53"/>
<text text-anchor="middle" x="1427.5" y="-37.8" font-family="Helvetica,sans-Serif" font-size="14.00">squared_error = 20456563.503</text>
<text text-anchor="middle" x="1427.5" y="-22.8" font-family="Helvetica,sans-Serif" font-size="14.00">samples = 199</text>
<text text-anchor="middle" x="1427.5" y="-7.8" font-family="Helvetica,sans-Serif" font-size="14.00">value = 10193.097</text>
</g>
<!-- 12&#45;&gt;13 -->
<g id="edge13" class="edge">
<title>12&#45;&gt;13</title>
<path fill="none" stroke="black" d="M1427.5,-88.95C1427.5,-80.72 1427.5,-71.85 1427.5,-63.48"/>
<polygon fill="black" stroke="black" points="1431,-63.24 1427.5,-53.24 1424,-63.24 1431,-63.24"/>
</g>
<!-- 14 -->
<g id="node15" class="node">
<title>14</title>
<polygon fill="none" stroke="black" points="1750,-53 1547,-53 1547,0 1750,0 1750,-53"/>
<text text-anchor="middle" x="1648.5" y="-37.8" font-family="Helvetica,sans-Serif" font-size="14.00">squared_error = 25642708.343</text>
<text text-anchor="middle" x="1648.5" y="-22.8" font-family="Helvetica,sans-Serif" font-size="14.00">samples = 269</text>
<text text-anchor="middle" x="1648.5" y="-7.8" font-family="Helvetica,sans-Serif" font-size="14.00">value = 13858.442</text>
</g>
<!-- 12&#45;&gt;14 -->
<g id="edge14" class="edge">
<title>12&#45;&gt;14</title>
<path fill="none" stroke="black" d="M1504.8,-88.95C1529.08,-78.56 1555.72,-67.17 1579.4,-57.05"/>
<polygon fill="black" stroke="black" points="1580.84,-60.24 1588.66,-53.09 1578.09,-53.8 1580.84,-60.24"/>
</g>
</g>
</svg>
