<?xml version="1.0" encoding="UTF-8" standalone="no"?>
<!DOCTYPE svg PUBLIC "-//W3C//DTD SVG 1.1//EN"
 "http://www.w3.org/Graphics/SVG/1.1/DTD/svg11.dtd">
<!-- Generated by graphviz version 2.50.0 (0)
 -->
<!-- Title: Tree Pages: 1 -->
<svg width="320pt" height="165pt"
 viewBox="0.00 0.00 320.00 165.00" xmlns="http://www.w3.org/2000/svg" xmlns:xlink="http://www.w3.org/1999/xlink">
<g id="graph0" class="graph" transform="scale(1 1) rotate(0) translate(4 161)">
<title>Tree</title>
<polygon fill="white" stroke="transparent" points="-4,4 -4,-161 316,-161 316,4 -4,4"/>
<!-- 0 -->
<g id="node1" class="node">
<title>0</title>
<polygon fill="none" stroke="black" points="229,-157 86,-157 86,-89 229,-89 229,-157"/>
<text text-anchor="middle" x="157.5" y="-141.8" font-family="Helvetica,sans-Serif" font-size="14.00">x[0] &lt;= 3.5</text>
<text text-anchor="middle" x="157.5" y="-126.8" font-family="Helvetica,sans-Serif" font-size="14.00">squared_error = 28.0</text>
<text text-anchor="middle" x="157.5" y="-111.8" font-family="Helvetica,sans-Serif" font-size="14.00">samples = 7</text>
<text text-anchor="middle" x="157.5" y="-96.8" font-family="Helvetica,sans-Serif" font-size="14.00">value = 17.0</text>
</g>
<!-- 1 -->
<g id="node2" class="node">
<title>1</title>
<polygon fill="none" stroke="black" points="151,-53 0,-53 0,0 151,0 151,-53"/>
<text text-anchor="middle" x="75.5" y="-37.8" font-family="Helvetica,sans-Serif" font-size="14.00">squared_error = 0.667</text>
<text text-anchor="middle" x="75.5" y="-22.8" font-family="Helvetica,sans-Serif" font-size="14.00">samples = 3</text>
<text text-anchor="middle" x="75.5" y="-7.8" font-family="Helvetica,sans-Serif" font-size="14.00">value = 11.0</text>
</g>
<!-- 0&#45;&gt;1 -->
<g id="edge1" class="edge">
<title>0&#45;&gt;1</title>
<path fill="none" stroke="black" d="M128.82,-88.95C120.96,-79.89 112.44,-70.07 104.56,-60.99"/>
<polygon fill="black" stroke="black" points="107.03,-58.5 97.83,-53.24 101.74,-63.08 107.03,-58.5"/>
<text text-anchor="middle" x="96.07" y="-74.47" font-family="Helvetica,sans-Serif" font-size="14.00">True</text>
</g>
<!-- 2 -->
<g id="node3" class="node">
<title>2</title>
<polygon fill="none" stroke="black" points="312,-53 169,-53 169,0 312,0 312,-53"/>
<text text-anchor="middle" x="240.5" y="-37.8" font-family="Helvetica,sans-Serif" font-size="14.00">squared_error = 1.25</text>
<text text-anchor="middle" x="240.5" y="-22.8" font-family="Helvetica,sans-Serif" font-size="14.00">samples = 4</text>
<text text-anchor="middle" x="240.5" y="-7.8" font-family="Helvetica,sans-Serif" font-size="14.00">value = 21.5</text>
</g>
<!-- 0&#45;&gt;2 -->
<g id="edge2" class="edge">
<title>0&#45;&gt;2</title>
<path fill="none" stroke="black" d="M186.53,-88.95C194.48,-79.89 203.11,-70.07 211.09,-60.99"/>
<polygon fill="black" stroke="black" points="213.93,-63.06 217.9,-53.24 208.67,-58.44 213.93,-63.06"/>
<text text-anchor="middle" x="219.51" y="-74.48" font-family="Helvetica,sans-Serif" font-size="14.00">False</text>
</g>
</g>
</svg>
