<?xml version="1.0" encoding="UTF-8" standalone="no"?>
<!DOCTYPE svg PUBLIC "-//W3C//DTD SVG 1.1//EN"
 "http://www.w3.org/Graphics/SVG/1.1/DTD/svg11.dtd">
<!-- Generated by graphviz version 2.50.0 (0)
 -->
<!-- Title: Tree Pages: 1 -->
<svg width="440pt" height="252pt"
 viewBox="0.00 0.00 439.50 252.00" xmlns="http://www.w3.org/2000/svg" xmlns:xlink="http://www.w3.org/1999/xlink">
<g id="graph0" class="graph" transform="scale(1 1) rotate(0) translate(4 248)">
<title>Tree</title>
<polygon fill="white" stroke="transparent" points="-4,4 -4,-248 435.5,-248 435.5,4 -4,4"/>
<!-- 0 -->
<g id="node1" class="node">
<title>0</title>
<polygon fill="none" stroke="black" points="319,-244 108,-244 108,-176 319,-176 319,-244"/>
<text text-anchor="middle" x="213.5" y="-228.8" font-family="Helvetica,sans-Serif" font-size="14.00">smoker_yes &lt;= 0.5</text>
<text text-anchor="middle" x="213.5" y="-213.8" font-family="Helvetica,sans-Serif" font-size="14.00">squared_error = 146542766.494</text>
<text text-anchor="middle" x="213.5" y="-198.8" font-family="Helvetica,sans-Serif" font-size="14.00">samples = 1338</text>
<text text-anchor="middle" x="213.5" y="-183.8" font-family="Helvetica,sans-Serif" font-size="14.00">value = 13270.422</text>
</g>
<!-- 1 -->
<g id="node2" class="node">
<title>1</title>
<polygon fill="none" stroke="black" points="203,-140 0,-140 0,-72 203,-72 203,-140"/>
<text text-anchor="middle" x="101.5" y="-124.8" font-family="Helvetica,sans-Serif" font-size="14.00">age &lt;= 42.5</text>
<text text-anchor="middle" x="101.5" y="-109.8" font-family="Helvetica,sans-Serif" font-size="14.00">squared_error = 35891656.003</text>
<text text-anchor="middle" x="101.5" y="-94.8" font-family="Helvetica,sans-Serif" font-size="14.00">samples = 1064</text>
<text text-anchor="middle" x="101.5" y="-79.8" font-family="Helvetica,sans-Serif" font-size="14.00">value = 8434.268</text>
</g>
<!-- 0&#45;&gt;1 -->
<g id="edge1" class="edge">
<title>0&#45;&gt;1</title>
<path fill="none" stroke="black" d="M177.14,-175.88C167.06,-166.71 156.02,-156.65 145.56,-147.12"/>
<polygon fill="black" stroke="black" points="147.81,-144.44 138.06,-140.3 143.1,-149.62 147.81,-144.44"/>
<text text-anchor="middle" x="139.23" y="-161.57" font-family="Helvetica,sans-Serif" font-size="14.00">True</text>
</g>
<!-- 2122 -->
<g id="node5" class="node">
<title>2122</title>
<polygon fill="none" stroke="black" points="431.5,-140 221.5,-140 221.5,-72 431.5,-72 431.5,-140"/>
<text text-anchor="middle" x="326.5" y="-124.8" font-family="Helvetica,sans-Serif" font-size="14.00">region_southeast &lt;= 0.5</text>
<text text-anchor="middle" x="326.5" y="-109.8" font-family="Helvetica,sans-Serif" font-size="14.00">squared_error = 132721153.136</text>
<text text-anchor="middle" x="326.5" y="-94.8" font-family="Helvetica,sans-Serif" font-size="14.00">samples = 274</text>
<text text-anchor="middle" x="326.5" y="-79.8" font-family="Helvetica,sans-Serif" font-size="14.00">value = 32050.232</text>
</g>
<!-- 0&#45;&gt;2122 -->
<g id="edge4" class="edge">
<title>0&#45;&gt;2122</title>
<path fill="none" stroke="black" d="M250.19,-175.88C260.35,-166.71 271.5,-156.65 282.05,-147.12"/>
<polygon fill="black" stroke="black" points="284.53,-149.6 289.61,-140.3 279.84,-144.4 284.53,-149.6"/>
<text text-anchor="middle" x="288.33" y="-161.57" font-family="Helvetica,sans-Serif" font-size="14.00">False</text>
</g>
<!-- 2 -->
<g id="node3" class="node">
<title>2</title>
<polygon fill="none" stroke="black" points="92.5,-36 38.5,-36 38.5,0 92.5,0 92.5,-36"/>
<text text-anchor="middle" x="65.5" y="-14.3" font-family="Helvetica,sans-Serif" font-size="14.00">(...)</text>
</g>
<!-- 1&#45;&gt;2 -->
<g id="edge2" class="edge">
<title>1&#45;&gt;2</title>
<path fill="none" stroke="black" d="M87.68,-72C84.04,-63.28 80.14,-53.98 76.66,-45.65"/>
<polygon fill="black" stroke="black" points="79.88,-44.28 72.79,-36.4 73.42,-46.98 79.88,-44.28"/>
</g>
<!-- 1187 -->
<g id="node4" class="node">
<title>1187</title>
<polygon fill="none" stroke="black" points="164.5,-36 110.5,-36 110.5,0 164.5,0 164.5,-36"/>
<text text-anchor="middle" x="137.5" y="-14.3" font-family="Helvetica,sans-Serif" font-size="14.00">(...)</text>
</g>
<!-- 1&#45;&gt;1187 -->
<g id="edge3" class="edge">
<title>1&#45;&gt;1187</title>
<path fill="none" stroke="black" d="M115.32,-72C118.96,-63.28 122.86,-53.98 126.34,-45.65"/>
<polygon fill="black" stroke="black" points="129.58,-46.98 130.21,-36.4 123.12,-44.28 129.58,-46.98"/>
</g>
<!-- 2123 -->
<g id="node6" class="node">
<title>2123</title>
<polygon fill="none" stroke="black" points="317.5,-36 263.5,-36 263.5,0 317.5,0 317.5,-36"/>
<text text-anchor="middle" x="290.5" y="-14.3" font-family="Helvetica,sans-Serif" font-size="14.00">(...)</text>
</g>
<!-- 2122&#45;&gt;2123 -->
<g id="edge5" class="edge">
<title>2122&#45;&gt;2123</title>
<path fill="none" stroke="black" d="M312.68,-72C309.04,-63.28 305.14,-53.98 301.66,-45.65"/>
<polygon fill="black" stroke="black" points="304.88,-44.28 297.79,-36.4 298.42,-46.98 304.88,-44.28"/>
</g>
<!-- 2488 -->
<g id="node7" class="node">
<title>2488</title>
<polygon fill="none" stroke="black" points="389.5,-36 335.5,-36 335.5,0 389.5,0 389.5,-36"/>
<text text-anchor="middle" x="362.5" y="-14.3" font-family="Helvetica,sans-Serif" font-size="14.00">(...)</text>
</g>
<!-- 2122&#45;&gt;2488 -->
<g id="edge6" class="edge">
<title>2122&#45;&gt;2488</title>
<path fill="none" stroke="black" d="M340.32,-72C343.96,-63.28 347.86,-53.98 351.34,-45.65"/>
<polygon fill="black" stroke="black" points="354.58,-46.98 355.21,-36.4 348.12,-44.28 354.58,-46.98"/>
</g>
</g>
</svg>
