<?xml version="1.0" encoding="UTF-8" standalone="no"?>
<!DOCTYPE svg PUBLIC "-//W3C//DTD SVG 1.1//EN"
 "http://www.w3.org/Graphics/SVG/1.1/DTD/svg11.dtd">
<!-- Generated by graphviz version 2.50.0 (0)
 -->
<!-- Title: Tree Pages: 1 -->
<svg width="314pt" height="165pt"
 viewBox="0.00 0.00 313.50 165.00" xmlns="http://www.w3.org/2000/svg" xmlns:xlink="http://www.w3.org/1999/xlink">
<g id="graph0" class="graph" transform="scale(1 1) rotate(0) translate(4 161)">
<title>Tree</title>
<polygon fill="white" stroke="transparent" points="-4,4 -4,-161 309.5,-161 309.5,4 -4,4"/>
<!-- 0 -->
<g id="node1" class="node">
<title>0</title>
<polygon fill="none" stroke="black" points="224.5,-157 73.5,-157 73.5,-89 224.5,-89 224.5,-157"/>
<text text-anchor="middle" x="149" y="-141.8" font-family="Helvetica,sans-Serif" font-size="14.00">x[0] &lt;= 1.5</text>
<text text-anchor="middle" x="149" y="-126.8" font-family="Helvetica,sans-Serif" font-size="14.00">squared_error = 0.299</text>
<text text-anchor="middle" x="149" y="-111.8" font-family="Helvetica,sans-Serif" font-size="14.00">samples = 7</text>
<text text-anchor="middle" x="149" y="-96.8" font-family="Helvetica,sans-Serif" font-size="14.00">value = 10.505</text>
</g>
<!-- 1 -->
<g id="node2" class="node">
<title>1</title>
<polygon fill="none" stroke="black" points="136,-53 0,-53 0,0 136,0 136,-53"/>
<text text-anchor="middle" x="68" y="-37.8" font-family="Helvetica,sans-Serif" font-size="14.00">squared_error = 0.0</text>
<text text-anchor="middle" x="68" y="-22.8" font-family="Helvetica,sans-Serif" font-size="14.00">samples = 1</text>
<text text-anchor="middle" x="68" y="-7.8" font-family="Helvetica,sans-Serif" font-size="14.00">value = 10.0</text>
</g>
<!-- 0&#45;&gt;1 -->
<g id="edge1" class="edge">
<title>0&#45;&gt;1</title>
<path fill="none" stroke="black" d="M120.67,-88.95C112.91,-79.89 104.49,-70.07 96.7,-60.99"/>
<polygon fill="black" stroke="black" points="99.23,-58.55 90.06,-53.24 93.91,-63.11 99.23,-58.55"/>
<text text-anchor="middle" x="88.14" y="-74.46" font-family="Helvetica,sans-Serif" font-size="14.00">True</text>
</g>
<!-- 2 -->
<g id="node3" class="node">
<title>2</title>
<polygon fill="none" stroke="black" points="305.5,-53 154.5,-53 154.5,0 305.5,0 305.5,-53"/>
<text text-anchor="middle" x="230" y="-37.8" font-family="Helvetica,sans-Serif" font-size="14.00">squared_error = 0.089</text>
<text text-anchor="middle" x="230" y="-22.8" font-family="Helvetica,sans-Serif" font-size="14.00">samples = 6</text>
<text text-anchor="middle" x="230" y="-7.8" font-family="Helvetica,sans-Serif" font-size="14.00">value = 11.009</text>
</g>
<!-- 0&#45;&gt;2 -->
<g id="edge2" class="edge">
<title>0&#45;&gt;2</title>
<path fill="none" stroke="black" d="M177.33,-88.95C185.09,-79.89 193.51,-70.07 201.3,-60.99"/>
<polygon fill="black" stroke="black" points="204.09,-63.11 207.94,-53.24 198.77,-58.55 204.09,-63.11"/>
<text text-anchor="middle" x="209.86" y="-74.46" font-family="Helvetica,sans-Serif" font-size="14.00">False</text>
</g>
</g>
</svg>
